<?xml version="1.0" encoding="UTF-8"?>
<svg width="64px" height="64px" viewBox="0 0 64 64" version="1.1" xmlns="http://www.w3.org/2000/svg" xmlns:xlink="http://www.w3.org/1999/xlink">
    <!-- Generator: Sketch 43.1 (39012) - http://www.bohemiancoding.com/sketch -->
    <title>off</title>
    <desc>Created with Sketch.</desc>
    <defs></defs>
    <g id="Page-1" stroke="none" stroke-width="1" fill="none" fill-rule="evenodd">
        <g id="off" fill-rule="nonzero" fill="#FFFFFF">
            <path d="M32,0 C14.32,0 0,14.32 0,32 C0,49.68 14.32,64 32,64 C49.68,64 64,49.68 64,32 C64,14.32 49.68,0 32,0 Z M32,62 C15.44,62 2,48.56 2,32 C2,15.44 15.44,2 32,2 C48.56,2 62,15.44 62,32 C62,48.56 48.56,62 32,62 Z" id="Shape"></path>
            <g id="Group" transform="translate(23.000000, 21.000000)">
                <path d="M16.2818182,7.30714286 L10.5545455,17.8357143 C10.4727273,17.9928571 10.5545455,18.2285714 10.7181818,18.3071429 L16.0363636,21.5285714 C16.4454545,21.7642857 16.7727273,21.6071429 16.7727273,21.1357143 L16.7727273,7.38571429 C16.6909091,7.15 16.3636364,7.07142857 16.2818182,7.30714286 Z" id="Shape"></path>
                <path d="M5.64545455,6.83571429 C5.64545455,6.44285714 5.31818182,6.12857143 4.90909091,6.12857143 L1.14545455,6.12857143 C0.736363636,6.12857143 0.409090909,6.44285714 0.409090909,6.83571429 L0.409090909,15.4785714 C0.409090909,15.8714286 0.736363636,16.1857143 1.14545455,16.1857143 L4.90909091,16.1857143 C5.31818182,16.1857143 5.64545455,15.8714286 5.64545455,15.4785714 L5.64545455,6.83571429 Z" id="Shape"></path>
                <path d="M17.0181818,0.471428571 C16.4454545,0.157142857 15.7909091,0.392857143 15.4636364,0.942857143 L5.56363636,19.3285714 C5.23636364,19.8785714 5.48181818,20.5071429 6.05454545,20.8214286 L6.05454545,20.8214286 C6.62727273,21.1357143 7.28181818,20.9 7.60909091,20.35 L17.5090909,1.96428571 C17.8363636,1.41428571 17.5909091,0.785714286 17.0181818,0.471428571 Z" id="Shape"></path>
                <path d="M7.52727273,12.65 L12.5181818,3.37857143 C12.6,3.14285714 12.3545455,2.90714286 12.1909091,3.06428571 L7.77272727,5.65714286 C7.36363636,5.89285714 7.03636364,6.44285714 7.03636364,6.83571429 L7.03636364,12.5714286 C7.03636364,12.8071429 7.44545455,12.8857143 7.52727273,12.65 Z" id="Shape"></path>
            </g>
        </g>
    </g>
</svg>