<?xml version="1.0" encoding="UTF-8"?>
<svg width="64px" height="64px" viewBox="0 0 64 64" version="1.1" xmlns="http://www.w3.org/2000/svg" xmlns:xlink="http://www.w3.org/1999/xlink">
    <!-- Generator: Sketch 43.1 (39012) - http://www.bohemiancoding.com/sketch -->
    <title>on</title>
    <desc>Created with Sketch.</desc>
    <defs></defs>
    <g id="Page-1" stroke="none" stroke-width="1" fill="none" fill-rule="evenodd">
        <g id="on" fill-rule="nonzero" fill="#FFFFFF">
            <path d="M32,0 C14.32,0 0,14.32 0,32 C0,49.68 14.32,64 32,64 C49.68,64 64,49.68 64,32 C64,14.32 49.68,0 32,0 Z M32,62 C15.44,62 2,48.56 2,32 C2,15.44 15.44,2 32,2 C48.56,2 62,15.44 62,32 C62,48.56 48.56,62 32,62 Z" id="Shape"></path>
            <path d="M21.3343481,26.8676562 L17.6454761,26.8676562 C17.2445117,26.8676562 16.9237402,27.1884277 16.9237402,27.5893921 L16.9237402,36.4106079 C16.9237402,36.8115723 17.2445117,37.1323437 17.6454761,37.1323437 L21.3343481,37.1323437 C21.7353125,37.1323437 22.056084,36.8115723 22.056084,36.4106079 L22.056084,27.5893921 C22.056084,27.1884277 21.7353125,26.8676562 21.3343481,26.8676562 Z" id="Shape"></path>
            <path d="M32.2405786,21.414541 L24.1410986,26.3063062 C23.7401343,26.5468848 23.4193628,27.1082349 23.4193628,27.5091992 L23.4193628,36.1700293 C23.4193628,36.6511865 23.7401343,37.2125366 24.1410986,37.4531152 L32.2405786,42.585459 C32.641543,42.8260376 32.9623145,42.6656519 32.9623145,42.1844946 L32.9623145,21.8155054 C32.9623145,21.414541 32.641543,21.1739624 32.2405786,21.414541 Z" id="Shape"></path>
            <g id="Group" transform="translate(35.000000, 23.000000)">
                <path d="M8.04375,18 C7.8,18 7.6375,17.9181818 7.475,17.7545455 C7.15,17.4272727 7.15,16.9363636 7.475,16.6090909 C11.61875,12.4363636 11.61875,5.56363636 7.475,1.39090909 C7.15,1.06363636 7.15,0.572727273 7.475,0.245454545 C7.8,-0.0818181818 8.2875,-0.0818181818 8.6125,0.245454545 C13.40625,5.07272727 13.40625,12.9272727 8.6125,17.7545455 C8.45,17.9181818 8.20625,18 8.04375,18 Z" id="Shape"></path>
                <path d="M4.7125,16.3636364 C4.46875,16.3636364 4.30625,16.2818182 4.14375,16.1181818 C3.81875,15.7909091 3.81875,15.3 4.14375,14.9727273 C5.6875,13.4181818 6.58125,11.2909091 6.58125,9 C6.58125,6.70909091 5.6875,4.66363636 4.14375,3.02727273 C3.81875,2.7 3.81875,2.20909091 4.14375,1.88181818 C4.46875,1.55454545 4.95625,1.55454545 5.28125,1.88181818 C7.15,3.76363636 8.20625,6.3 8.20625,9 C8.20625,11.7 7.15,14.2363636 5.28125,16.1181818 C5.11875,16.2818182 4.875,16.3636364 4.7125,16.3636364 Z" id="Shape"></path>
                <path d="M1.38125,14.7272727 C1.1375,14.7272727 0.975,14.6454545 0.8125,14.4818182 C0.4875,14.1545455 0.4875,13.6636364 0.8125,13.3363636 C3.16875,10.9636364 3.16875,7.03636364 0.8125,4.66363636 C0.4875,4.33636364 0.4875,3.84545455 0.8125,3.51818182 C1.1375,3.19090909 1.625,3.19090909 1.95,3.51818182 C4.95625,6.54545455 4.95625,11.4545455 1.95,14.4818182 C1.7875,14.6454545 1.54375,14.7272727 1.38125,14.7272727 Z" id="Shape"></path>
            </g>
        </g>
    </g>
</svg>