<?xml version="1.0" encoding="UTF-8"?>
<svg width="150px" height="150px" viewBox="0 0 150 150" version="1.1" xmlns="http://www.w3.org/2000/svg" xmlns:xlink="http://www.w3.org/1999/xlink">
    <!-- Generator: Sketch 42 (36781) - http://www.bohemiancoding.com/sketch -->
    <title>play</title>
    <desc>Created with Sketch.</desc>
    <defs></defs>
    <g id="Page-1" stroke="none" stroke-width="1" fill="none" fill-rule="evenodd">
        <g id="play" fill-rule="nonzero" fill="#FFFFFF">
            <g id="Group" transform="translate(59.000000, 52.000000)">
                <path d="M31.5146208,21.0249518 C33.4395426,22.1157408 33.4710515,23.9173691 31.5732349,25.0560591 L8.4267651,38.9439409 C6.53421499,40.079471 5,39.2162267 5,37.0021074 L5,9.99789262 C5,7.78991749 6.54975774,6.87819605 8.48537922,7.97504822 L31.5146208,21.0249518 Z M2,0 C1.72521099,0.000297064976 1.12795384,0.249559331 1,1 C0.24725962,1.1372314 -8.51640227e-05,1.73926296 -4.97379915e-14,2 L-4.97379915e-14,45 C-0.00291799249,45.47894 0.443361911,46.2612991 1,47 C1.89607385,47.1067835 2.79135006,47.1052158 4,47 L40,26 C40.5532519,25.1245596 41,24.3444991 41,24 C41,22.6561408 40.5532519,21.8760803 40,21 L4,0 C3.1618026,0.111147061 2.75867057,0.000714875886 2,0 L2,0 Z" id="Shape"></path>
            </g>
            <path d="M75,7 C112.555363,7 143,37.444637 143,75 C143,112.555363 112.555363,143 75,143 C37.444637,143 7,112.555363 7,75 C7.05166414,37.4660578 37.4660578,7.05166414 75,7 L75,7 Z M75,0 C33.5786438,-2.53632657e-15 5.07265313e-15,33.5786438 0,75 C-5.07265313e-15,116.421356 33.5786438,150 75,150 C116.421356,150 150,116.421356 150,75 C150,55.1087633 142.098237,36.0322198 128,22 C113.96778,7.90176303 94.8912367,1.21798697e-15 75,0 Z" id="Shape"></path>
        </g>
    </g>
</svg>